<?xml version="1.0" standalone="no"?><!DOCTYPE svg PUBLIC "-//W3C//DTD SVG 1.1//EN" "http://www.w3.org/Graphics/SVG/1.1/DTD/svg11.dtd"><svg t="1486715398676" class="icon" style="" viewBox="0 0 1024 1024" version="1.1" xmlns="http://www.w3.org/2000/svg" p-id="7344" xmlns:xlink="http://www.w3.org/1999/xlink" width="32" height="32"><defs><style type="text/css"></style></defs><path d="M515.15904 265.70752c5.90848 0.18432 10.6752-5.84192 17.67424-15.0784 29.99296-39.58272 101.37088-142.44352 211.76832-136.87808 143.00672 7.20896 216.68352 146.432 216.03328 276.29056-0.57344 114.16576-85.63712 251.22816-185.46688 304.05632-53.69344 28.416-116.46464 41.17504-167.12192 75.29472-49.01376 33.01376-53.21216 96.60416-92.35968 137.39008-17.78176 18.52416 9.1392-36.25984-26.9312-86.29248-39.68-55.04-98.97472-76.01152-138.24-89.6-99.84-34.56-145.76128-53.90848-207.17568-122.48576C91.71968 550.76864 65.49504 469.13024 63.488 388.82304c-4.25472-170.03008 100.03456-334.0544 301.57824-251.45856 35.5328 14.56128 71.99744 43.09504 94.24896 68.08064 13.82912 15.53408 25.19552 34.70848 36.29056 47.3856 6.66112 7.61856 12.06784 12.64128 19.55328 12.8768z" fill="#d81e06" p-id="7345"></path></svg>