<?xml version="1.0" standalone="no"?><!DOCTYPE svg PUBLIC "-//W3C//DTD SVG 1.1//EN" "http://www.w3.org/Graphics/SVG/1.1/DTD/svg11.dtd"><svg t="1486632803255" class="icon" style="" viewBox="0 0 1024 1024" version="1.1" xmlns="http://www.w3.org/2000/svg" p-id="1694" xmlns:xlink="http://www.w3.org/1999/xlink" width="48" height="48"><defs><style type="text/css"></style></defs><path d="M808.426 927 215.574 927c-65.487 0-118.571-53.09-118.571-118.571L97.003 215.571C97.003 150.084 150.087 97 215.574 97l592.851 0c65.487 0 118.571 53.084 118.571 118.571l0 592.857C926.997 873.91 873.913 927 808.426 927zM656.055 447.319c-79.218-43.113-126.943-86.225-206.16-129.344-79.218-43.124-118.826-21.562-118.826 64.669 0 86.243 0 172.468 0 258.699 0 86.243 39.609 107.799 118.826 64.681 79.218-43.119 126.943-86.231 206.16-129.35C735.273 533.556 735.273 490.438 656.055 447.319z" p-id="1695" fill="#85BDF6"></path></svg>